<svg xmlns="http://www.w3.org/2000/svg" width="512" height="512" viewBox="0 0 512 512">
  <defs>
    <linearGradient id="leafGrad" x1="0%" y1="0%" x2="100%" y2="100%">
      <stop offset="0%" stop-color="#3a8c66"/>
      <stop offset="100%" stop-color="#2d6a4f"/>
    </linearGradient>
    <linearGradient id="stemGrad" x1="0%" y1="0%" x2="0%" y2="100%">
      <stop offset="0%" stop-color="#2d6a4f"/>
      <stop offset="100%" stop-color="#1f5e44"/>
    </linearGradient>
  </defs>
  <!-- 배경 원 -->
  <circle cx="256" cy="256" r="240" fill="#f9f9f6"/>
  <!-- 새싹 줄기 -->
  <path d="M256 380 C256 380 256 280 256 240" stroke="url(#stemGrad)" stroke-width="18" stroke-linecap="round" fill="none"/>
  <!-- 왼쪽 잎 (작은 잎) -->
  <path d="M256 300 C220 280 180 240 190 190 C230 200 260 240 256 300Z" fill="url(#leafGrad)" opacity="0.85"/>
  <!-- 오른쪽 잎 (큰 잎, 성장) -->
  <path d="M256 260 C300 230 350 170 330 110 C280 125 250 190 256 260Z" fill="url(#leafGrad)"/>
  <!-- 잎맥 (왼쪽) -->
  <path d="M256 300 C235 275 210 250 200 215" stroke="#f9f9f6" stroke-width="3" stroke-linecap="round" fill="none" opacity="0.5"/>
  <!-- 잎맥 (오른쪽) -->
  <path d="M256 260 C280 230 310 185 320 140" stroke="#f9f9f6" stroke-width="3.5" stroke-linecap="round" fill="none" opacity="0.5"/>
</svg>
